<svg id="レイヤー_1" data-name="レイヤー 1" xmlns="http://www.w3.org/2000/svg" xmlns:xlink="http://www.w3.org/1999/xlink" viewBox="0 0 543 303">
  <defs>
    <clipPath id="clip-path">
      <path d="M68.787,231.311C82,261.14,79.172,299.656,63.123,298.71s-17.6-18.247-17.6-18.247h0a13.911,13.911,0,0,1-5.69,6.6c-7.194,4.116-19.338,1.966-26.89-12.76-16.446-32.068-15.84-69.512,6.384-76.978a32.041,32.041,0,0,1,10.227-1.747c14.791,0,28.467,11.423,39.237,35.734" fill="none"/>
    </clipPath>
  </defs>
  <g id="グループ_407" data-name="グループ 407">
    <g id="グループ_405" data-name="グループ 405">
      <path id="パス_80" data-name="パス 80" d="M373.534,139.6a113.5,113.5,0,1,1-18.49-50.786l36.3-13.211a151.285,151.285,0,1,0,18.492,50.787Z" fill="#2AA314"/>
      <g id="グループ_380" data-name="グループ 380">
        <path id="パス_81" data-name="パス 81" d="M288.068,177.055l.047.029L220.852,221.49l4.828-80.446.046.024.516-8.678-7.578-4.376-6.516,108.553,90.761-59.921-7.585-4.376Z" fill="#2AA314"/>
        <path id="パス_82" data-name="パス 82" d="M302.906,176.642l6.516-108.557L218.666,128l84.24,48.638" fill="#2AA314"/>
      </g>
    </g>
    <g id="グループ_406" data-name="グループ 406">
      <g id="グループ_400" data-name="グループ 400">
        <path id="パス_92" data-name="パス 92" d="M518.208,175.44c-14.415-4.162-27.93-.029-39.442,13.226a41.078,41.078,0,0,0-5.49-4.244l.191.117s-.415-18.6-8.137-24.211-8.725,12.586-9.1,14.142l-.9,3.387a47.734,47.734,0,0,0-12.167-.04c-.5-1.518.146-23.39-7.067-17.145s-9.655,23.734-9.655,23.734l-.043.619c-18.114,12.136-21.258,36.924-21.258,36.924-9.188,19.389-2.038,29.455,7.853,34.684a1.363,1.363,0,0,0-.23.018c-2.152.649-2.1,3.722,1.443,4.725,0,0-1.376,7.8,7.036,5.6,0,0,5.307,5.877,10.835,7.739,0,0-.31,23.33,7.294,24.837,7.8-.215,6.109-4.038,5.858-4.384l-.172-.777c3.694,1.257,9.306,1.957,17.584.473.42-.074-2.4,6.147,4.573,4.535a6.82,6.82,0,0,0,4.455-3.784c.216-.008.426,0,.65-.017,18.623-1.9,19.568-22.111,19.568-22.111v-.008a16.2,16.2,0,0,0,6.952,7.405c8.576,4.429,22.6,1.32,30.649-16.192C547.016,226.547,544.438,183.013,518.208,175.44Z" fill="#f6cb57"/>
        <path id="パス_93" data-name="パス 93" d="M463.034,280.283c.344,7.839-5.046,14.435-12.026,14.736s-12.9-5.81-13.243-13.649,5.046-14.435,12.024-14.736,12.9,5.809,13.243,13.649" fill="#fff"/>
        <path id="パス_94" data-name="パス 94" d="M441.265,232.234l1.529-1.3a1.31,1.31,0,0,0-.9-2.308l-3.163.135a1.311,1.311,0,0,0-.7,2.379l1.3.924a9.669,9.669,0,0,0,.439,4.595.936.936,0,0,0,.911.593.874.874,0,0,0,.3-.063.937.937,0,0,0,.532-1.2,7.854,7.854,0,0,1-.324-3.7A.606.606,0,0,1,441.265,232.234Z" fill="#2d0707"/>
        <path id="パス_95" data-name="パス 95" d="M432.222,180.506l2.224-.986c.75-.323,1.493-.643,2.26-.953l1.176-.454.547-.21.606-.213c.859-.285,1.733-.516,2.607-.729-.026-.382-.05-.841-.079-1.426-.434-8.274-1.347-12.767-2.719-13.351-.279-.117-.828.139-1.464.688-4.85,4.2-7.346,14.467-8.271,19.209.292-.162.576-.344.872-.49Q431.085,181.015,432.222,180.506Z" fill="none"/>
        <path id="パス_96" data-name="パス 96" d="M516.847,202.862a22.3,22.3,0,0,1,14.046,12.868c4.426,9.661,4.9,23.245,1.72,37.494,1.032-2.924,1.994-5.958,2.835-9.079a104.8,104.8,0,0,0,3.806-29.6,65.461,65.461,0,0,0-2.159-15.508,37.786,37.786,0,0,0-6.95-14.1,25.837,25.837,0,0,0-5.847-5.247,24.838,24.838,0,0,0-3.485-1.852c-.61-.274-1.2-.487-1.818-.711l-1-.315c-.272-.087-.636-.172-.951-.27a33.841,33.841,0,0,0-15.995-.579,35.006,35.006,0,0,0-14.419,7.031,50.48,50.48,0,0,0-6.02,5.675,49.565,49.565,0,0,1,5.141,5.752,57.8,57.8,0,0,1,5.177,8.119c.712,1.34,1.376,2.726,2.019,4.147A27.023,27.023,0,0,1,516.847,202.862Z" fill="none"/>
        <path id="パス_98" data-name="パス 98" d="M473.606,294.126l.15-.031-.119-.134C473.625,294.016,473.62,294.071,473.606,294.126Z" fill="#e29329"/>
        <g id="グループ_399" data-name="グループ 399">
          <path id="パス_99" data-name="パス 99" d="M421.794,229.864a4.1,4.1,0,1,1-4.272-3.919,4.1,4.1,0,0,1,4.272,3.919v0" fill="#f39d2f"/>
          <path id="パス_100" data-name="パス 100" d="M473.934,227.623a4.1,4.1,0,1,1-4.273-3.919h0a4.1,4.1,0,0,1,4.272,3.917v0" fill="#f39d2f"/>
          <path id="パス_101" data-name="パス 101" d="M452.63,279.179l-4.559-6.708a.331.331,0,0,0-.462-.083.327.327,0,0,0-.1.107l-3.975,7.067a.331.331,0,0,0,.458.446l4.012-2.389,4.211,2.043a.356.356,0,0,0,.158.033.331.331,0,0,0,.315-.345.335.335,0,0,0-.057-.171Z" fill="#f39d2f"/>
          <path id="パス_102" data-name="パス 102" d="M530.383,215.964a21.482,21.482,0,0,0-13.692-12.555,28.99,28.99,0,0,0-9.308-1.186,26.5,26.5,0,0,0-14.213,5q1.014,2.31,1.879,4.735c.587,1.653,1.12,3.333,1.571,5.07.419,1.72.8,3.44,1.119,5.2a63.691,63.691,0,0,1,1.123,10.57,36.963,36.963,0,0,1-1.2,10.369,25.918,25.918,0,0,1-1.829,4.737,22.2,22.2,0,0,1-9.632,9.666,31.466,31.466,0,0,1-6.933,2.626,52.929,52.929,0,0,1-5.526,1.083c-1.051.152-1.929.258-2.648.344.247.377.5.755.746,1.139q.729,1.159,1.424,2.344c.925,1.581,1.8,3.2,2.592,4.871a27.744,27.744,0,0,1,1.957,5.319,9.609,9.609,0,0,1,.269,3.1,4.819,4.819,0,0,1-.528,1.765,3.785,3.785,0,0,1-1.416,1.439h-.014l-.072.038a4.987,4.987,0,0,1-2.27.483,4.893,4.893,0,0,1-.97-.141V282a39.446,39.446,0,0,1,1.114,6.456,20.913,20.913,0,0,1-.115,4.529c-.046.315-.113.641-.186.966l.119.135a19.423,19.423,0,0,0,6.211-2.1,18.122,18.122,0,0,0,5.7-4.957,23.333,23.333,0,0,0,3.035-5.412,29.13,29.13,0,0,0,1.376-4.434,28.014,28.014,0,0,0,.5-2.833c.033-.28.054-.486.068-.643a24.637,24.637,0,0,1-1.3-3.479,27.139,27.139,0,0,1-.906-4.969,24.539,24.539,0,0,1-.085-3.127c.026-.707.06-1.073.06-1.073v-.027a.984.984,0,0,1,1.961.134s-.014.344,0,.985a28.141,28.141,0,0,0,.217,2.872,25.377,25.377,0,0,0,1.032,4.515,20.461,20.461,0,0,0,2.643,5.468c.017.022.029.046.047.07.1.145.228.284.344.427q.2.273.423.538c.146.177.265.334.411.5a13.534,13.534,0,0,0,4.4,3.323,14.561,14.561,0,0,0,4.037,1.216,16.221,16.221,0,0,0,4.568.065,20.2,20.2,0,0,0,9.361-3.742,29.8,29.8,0,0,0,7.74-8.459c.28-.421.531-.868.789-1.31s.5-.893.743-1.345l.361-.688.353-.729.352-.737.326-.715q1.2-2.651,2.313-5.449C535.269,242.112,535.26,226.617,530.383,215.964Zm-5.574,22.512c-.088,1.878-.284,3.49-.472,4.816s-.388,2.349-.529,3.054l-.233,1.082a.991.991,0,0,1-1.945-.37v-.04l.172-1.031c.107-.688.248-1.686.387-2.964s.272-2.838.293-4.611a23.732,23.732,0,0,0-.537-5.767,6.47,6.47,0,0,0-1.214-2.621,2.915,2.915,0,0,0-.989-.736,3.223,3.223,0,0,0-.613-.148l-.33-.041-.361.017h-.211l-.121.021-.481.079a2.222,2.222,0,0,0-.387.1l-.344.1c-.255.11-.516.2-.774.325a5.882,5.882,0,0,0-.766.42,13.574,13.574,0,0,0-2.865,2.4,28.247,28.247,0,0,0-4.522,6.859,45.875,45.875,0,0,0-3,8.113,42.749,42.749,0,0,0-1.433,8.517,32.628,32.628,0,0,0,.014,4.172q.05.538.1,1.074c.045.328.09.655.133.982.11.66.232,1.321.39,1.959a17.1,17.1,0,0,0,1.285,3.577A7.266,7.266,0,0,0,507.5,270.4a3.112,3.112,0,0,0,1.223.566,2.912,2.912,0,0,0,.624.071,3.492,3.492,0,0,0,.635-.1,5.681,5.681,0,0,0,2.421-1.454,12.131,12.131,0,0,0,1.032-1.083c.3-.4.625-.762.889-1.172s.547-.782.778-1.186.481-.779.688-1.172a43.243,43.243,0,0,0,1.983-4.151c.237-.6.45-1.134.636-1.6s.322-.869.444-1.192c.237-.65.366-1,.366-1l.009-.028a1,1,0,0,1,1.892.648l-.331,1.032c-.214.671-.541,1.674-1,2.924a45.459,45.459,0,0,1-1.952,4.443c-.2.425-.447.851-.7,1.291s-.526.886-.82,1.34-.64.9-.979,1.364a14.448,14.448,0,0,1-1.214,1.333,8.1,8.1,0,0,1-3.508,2.127,5.485,5.485,0,0,1-4.625-.872,9.871,9.871,0,0,1-2.924-3.482,18.139,18.139,0,0,1-1.565-4.171c-.186-.724-.327-1.455-.454-2.2-.052-.381-.107-.762-.158-1.144l-.107-1.079a34.946,34.946,0,0,1-.046-4.588,45.338,45.338,0,0,1,1.468-9.1,46.105,46.105,0,0,1,3.234-8.619,30.869,30.869,0,0,1,5.041-7.5,16.161,16.161,0,0,1,3.489-2.856c.318-.2.688-.353,1.015-.528a9.109,9.109,0,0,1,1.072-.42l.605-.162a4.772,4.772,0,0,1,.567-.123l.484-.071.118-.017h.054l.118-.014h.943c.205.019.413.053.614.084a5.654,5.654,0,0,1,1.2.344,5.519,5.519,0,0,1,1.93,1.476,8.878,8.878,0,0,1,1.678,3.693,23.934,23.934,0,0,1,.441,6.415Z" fill="#f39d2f"/>
        </g>
        <path id="パス_103" data-name="パス 103" d="M539.763,198.305a40.537,40.537,0,0,0-7.492-15.135,28.578,28.578,0,0,0-6.492-5.808,27.63,27.63,0,0,0-3.886-2.064c-.663-.3-1.376-.554-2.084-.807l-1-.313c-.394-.126-.711-.2-1.067-.3a39.757,39.757,0,0,0-8.584-1.341,34.489,34.489,0,0,0-8.711.734,37.793,37.793,0,0,0-15.551,7.568,53.189,53.189,0,0,0-6.339,5.99,40.767,40.767,0,0,0-3.722-2.793c-.2-2.214-1.963-19.275-8.828-25.853a4.249,4.249,0,0,0-4.488-1.361c-3.371,1.163-5.663,7.186-7.433,19.524a34.2,34.2,0,0,0-5.206-.3,35.635,35.635,0,0,0-4.472.39c-.019-.344-.039-.7-.057-1.05-.374-7.195-1.031-14.339-4.42-15.785a4.052,4.052,0,0,0-4.4,1.154c-6.921,6-9.377,21.579-9.632,23.287a41.426,41.426,0,0,0-4.127,3.211,52.079,52.079,0,0,0-11.828,15.785,67.323,67.323,0,0,0-3.725,9.126q-.764,2.34-1.376,4.733c-.38,1.536-.714,3.047-.969,4.661-.328.737-.677,1.462-.98,2.211l-.493,1.2-.458,1.221c-.311.811-.562,1.646-.829,2.477-.239.839-.475,1.68-.664,2.539-.106.423-.189.86-.268,1.29s-.172.86-.219,1.3c-.135.872-.216,1.754-.276,2.638l-.045,1.33.026,1.336.1,1.338c.06.444.11.888.182,1.331a21.23,21.23,0,0,0,.623,2.623c.137.43.268.86.44,1.276l.246.631.282.613a19.919,19.919,0,0,0,1.311,2.361,21.807,21.807,0,0,0,3.482,4.061c.324.3.671.583,1,.873a12.9,12.9,0,0,0,1.049.81c.712.516,1.436,1.013,2.188,1.459a3.222,3.222,0,0,0-.7,2.05,4.319,4.319,0,0,0,2.813,3.8,6.671,6.671,0,0,0,1.815,5.041,6.784,6.784,0,0,0,6.238,1.154,32.7,32.7,0,0,0,10.178,7.248c-.024.237-.064.471-.086.71a61.015,61.015,0,0,0-.225,8.823,39.345,39.345,0,0,0,.464,4.453,23.861,23.861,0,0,0,1.14,4.432,12.93,12.93,0,0,0,2.425,4.157,8.46,8.46,0,0,0,1.99,1.625,7.921,7.921,0,0,0,2.436.925,1.236,1.236,0,0,0,.278.026h.026c.4,0,.789-.012,1.192-.038a10.888,10.888,0,0,0,1.2-.153,9.732,9.732,0,0,0,2.49-.718,6.359,6.359,0,0,0,.628-.344,5.621,5.621,0,0,0,.611-.465,3.722,3.722,0,0,0,.992-1.362,3.313,3.313,0,0,0,.227-1.673,27.45,27.45,0,0,0,3.364.643,33.568,33.568,0,0,0,4.91.232,47.787,47.787,0,0,0,5.2-.4c.277-.033.554-.076.829-.116a6.523,6.523,0,0,0,0,1.008,4.078,4.078,0,0,0,.607,1.892,3.437,3.437,0,0,0,1.7,1.338,5.118,5.118,0,0,0,1.759.3,9,9,0,0,0,1.529-.129,8.316,8.316,0,0,0,5.16-2.934,8.436,8.436,0,0,0,.8-1.19,22.385,22.385,0,0,0,8.591-2.592,20.665,20.665,0,0,0,6.47-5.658,25.7,25.7,0,0,0,3.34-6,31.4,31.4,0,0,0,1.481-4.815c.05-.227.091-.434.134-.644a17.833,17.833,0,0,0,2.272,2.635,16.464,16.464,0,0,0,1.78,1.412c.311.214.7.456,1.016.635l.479.268.567.279a17.218,17.218,0,0,0,4.759,1.489,19.014,19.014,0,0,0,5.332.128,22.854,22.854,0,0,0,10.663-4.242,32.6,32.6,0,0,0,8.479-9.246c.3-.456.569-.932.844-1.407s.542-.966.807-1.463l.392-.745.344-.733.354-.734.353-.779c.913-2.016,1.8-4.092,2.63-6.23a129.9,129.9,0,0,0,4.444-13.489,107.519,107.519,0,0,0,3.889-30.4A68.1,68.1,0,0,0,539.763,198.305Zm-102.385-35.43c.637-.554,1.185-.81,1.464-.688,1.376.585,2.286,5.077,2.719,13.351.029.585.053,1.044.079,1.426-.875.207-1.744.444-2.607.729l-.606.214-.546.21-1.175.457c-.767.31-1.51.63-2.26.953l-2.224.985q-1.137.516-2.236,1.089c-.3.155-.579.329-.87.49.917-4.748,3.412-15.013,8.262-19.216Zm34.694,116.14a3.139,3.139,0,0,1-.253-.189l-.294-.27-1.261-1.188c-.836-.8-1.656-1.615-2.447-2.443-.172-.182-.344-.368-.516-.554l-.248-.268c-.113-.124-.232-.248-.344-.371l-.055-.062a15.941,15.941,0,0,1-1.011-1.264l-.021-.026a1.154,1.154,0,0,0-1.892,1.321,18.548,18.548,0,0,0,1.158,1.493c.4.462.8.908,1.2,1.345.316.344.641.653.959.982l.368.375.265.273c.3.3.595.619.9.918l1.278,1.235.2.186c.085.358.244,1.049.447,2.023a41.818,41.818,0,0,1,.843,6.091c.031.666.041,1.361.009,2.064,0,.162-.021.325-.033.489s-.024.344-.041.5c-.031.294-.067.589-.117.883a10.027,10.027,0,0,1-.468,1.761,7.7,7.7,0,0,1-.593,1.231,5.733,5.733,0,0,1-.456.688,4.964,4.964,0,0,1-.47.47,5.6,5.6,0,0,1-3,1.453,3.982,3.982,0,0,1-1.864-.038.615.615,0,0,1-.344-.249,1.3,1.3,0,0,1-.162-.6,4.68,4.68,0,0,1,.053-1l.1-.588.064-.368a2.7,2.7,0,0,0,.032-.323v-.179a1.571,1.571,0,0,0-.067-.373l-.019-.047a1.446,1.446,0,0,0-.235-.431c-.107-.272-.638-.449-.886-.516l-.06-.018h0c-.067-.013-.091-.013-.04,0-.143,0-.433.019-.387.019h-.02c-.842.14-1.677.3-2.513.4a44.67,44.67,0,0,1-4.9.434,38.655,38.655,0,0,1-4.553-.134,24.46,24.46,0,0,1-3.967-.688,15.57,15.57,0,0,1-5.322-2.441A9.243,9.243,0,0,1,439.915,290c-.117-.125-.2-.225-.248-.284l-.043-.051-.018-.026-.043-.06a1.07,1.07,0,0,0-1.76,1.218l.124.187c.077.114.189.26.344.445a10.53,10.53,0,0,0,1.415,1.394,15.027,15.027,0,0,0,2.5,1.647,16.9,16.9,0,0,0,1.919.86,1.1,1.1,0,0,0,.19.48c-.045-.053-.04-.045-.04-.031l.014.057.026.149a1.37,1.37,0,0,1,.017.307,1.046,1.046,0,0,1-.145.473,1.228,1.228,0,0,1-.364.385,2.9,2.9,0,0,1-.657.344,7.152,7.152,0,0,1-1.8.464c-.327.05-.665.079-1.006.108-.285.037-.58.052-.872.073a5.053,5.053,0,0,1-1.457-.556,5.685,5.685,0,0,1-1.355-1.1,10.268,10.268,0,0,1-1.918-3.278,28.2,28.2,0,0,1-1.57-8.084,64.68,64.68,0,0,1,.055-8.48c.033-.5.1-1,.141-1.5l.009-.015a1.4,1.4,0,0,0,.05-.621c.067-.705.115-1.414.2-2.119l.28-2.119c.1-.71.207-1.4.327-2.116a1.071,1.071,0,0,0-2.105-.392h0c-.143.7-.282,1.436-.409,2.152s-.243,1.443-.344,2.165c-.04.258-.061.516-.095.776A33,33,0,0,1,422.266,266a1.4,1.4,0,0,0-1.4-.416c-1.457.38-3.411.636-4.441-.3a4.6,4.6,0,0,1-.86-3.691,1.4,1.4,0,0,0-1-1.6c-1.281-.362-1.868-1.044-1.875-1.525a.516.516,0,0,1,.391-.485c1.119-.024,6.692,1.629,18.872,6.394a1.4,1.4,0,0,0,1.032-2.61c-16.49-6.453-19.409-6.732-20.37-6.558-.305-.172-.609-.344-.908-.549-.688-.432-1.357-.905-2.006-1.395-.325-.242-.631-.507-.947-.76s-.609-.531-.9-.813a19.666,19.666,0,0,1-1.643-1.76,18.676,18.676,0,0,1-1.4-1.933,17.905,17.905,0,0,1-1.113-2.1l-.243-.542-.208-.557c-.149-.367-.258-.748-.375-1.129a18.781,18.781,0,0,1-.516-2.321c-.062-.394-.1-.792-.149-1.187l-.078-1.2-.01-1.2.053-1.2c.066-.8.146-1.61.281-2.408.051-.4.137-.8.216-1.2s.157-.8.262-1.193c.172-.8.413-1.583.646-2.37.26-.779.492-1.567.8-2.336l.439-1.159.474-1.144c.31-.767.688-1.512,1.017-2.27v-.016a1.408,1.408,0,0,0,.1-.361c.232-1.491.583-3.07.968-4.592s.84-3.049,1.338-4.552a66.261,66.261,0,0,1,3.612-8.772A49.469,49.469,0,0,1,423.5,189.125a40.265,40.265,0,0,1,7.648-5.374q1.032-.555,2.1-1.046l2.189-1c.726-.321,1.462-.647,2.185-.949l1.032-.411c-2.664,4.905-6.5,16.141-.236,34.225a1.4,1.4,0,0,0,1.285.945h.1a1.4,1.4,0,0,0,1.236-.869c3.4-8.316,14.124-32.576,15.544-35.787.551.113,1.1.225,1.645.368h0a1.013,1.013,0,0,0,.535-1.954c-.63-.172-1.27-.323-1.909-.464l.012-.067c2.091-14.6,4.6-16.967,5.577-17.3.421-.146.974.1,1.632.734,5.048,4.837,7.088,16.946,7.74,22.006-.974-.528-1.892-.978-2.7-1.343-1.436-.64-2.6-1.044-3.4-1.321l-1.228-.39a1.038,1.038,0,1,0-.655,1.971h0l.034.01,1.153.4c.741.282,1.831.688,3.168,1.331a36.524,36.524,0,0,1,4.208,2.37,1.361,1.361,0,0,0,.705.47,40.505,40.505,0,0,1,3.872,3c.33.289.664.595.994.9.086.077.172.149.256.232.253.237.5.5.757.748a47.379,47.379,0,0,1,4.673,5.412,60.144,60.144,0,0,1,4.874,7.809c.77,1.468,1.5,3,2.172,4.573.04.089.074.182.114.273s.072.183.111.272c.541,1.288,1.055,2.6,1.524,3.942.552,1.586,1.058,3.211,1.466,4.838s.782,3.337,1.088,5.019a61.079,61.079,0,0,1,1.1,10.1,34.227,34.227,0,0,1-1.085,9.6,23.963,23.963,0,0,1-1.6,4.25,19.969,19.969,0,0,1-2.327,3.623,20.287,20.287,0,0,1-6.1,5,30.4,30.4,0,0,1-6.349,2.524,50.011,50.011,0,0,1-5.25,1.134c-1.483.242-2.664.4-3.478.516l-1.25.182a1.127,1.127,0,0,0-.955,1.254,1.035,1.035,0,0,0,.093.271,1.361,1.361,0,0,0,.232.872v.009c.5.7.994,1.448,1.476,2.188s.951,1.491,1.408,2.248c.912,1.513,1.774,3.056,2.539,4.624a25.118,25.118,0,0,1,1.835,4.768,7.088,7.088,0,0,1,.248,2.236,2.293,2.293,0,0,1-.213.813,1.2,1.2,0,0,1-.415.444,2.578,2.578,0,0,1-2.262-.033A3.766,3.766,0,0,1,472.072,279.015Zm63.369-34.877c-.841,3.121-1.8,6.148-2.835,9.079-.282.807-.574,1.6-.868,2.391-.217.576-.427,1.157-.65,1.719-.086.219-.172.432-.262.649q-1.109,2.791-2.313,5.448l-.325.716-.352.736-.353.729-.361.688c-.239.451-.473.9-.743,1.345s-.516.889-.79,1.311a29.8,29.8,0,0,1-7.739,8.458,20.217,20.217,0,0,1-9.361,3.743,16.258,16.258,0,0,1-4.568-.066,14.541,14.541,0,0,1-4.037-1.216,13.524,13.524,0,0,1-4.405-3.323c-.144-.172-.273-.33-.411-.5s-.287-.356-.423-.538c-.108-.143-.234-.282-.344-.426-.017-.024-.029-.049-.046-.071a20.428,20.428,0,0,1-2.644-5.467,25.5,25.5,0,0,1-1.032-4.515,28.161,28.161,0,0,1-.216-2.872c-.014-.65,0-.986,0-.986a.984.984,0,0,0-1.961-.134v.028s-.033.366-.06,1.073a24.729,24.729,0,0,0,.084,3.127,27.3,27.3,0,0,0,.906,4.968,24.819,24.819,0,0,0,1.3,3.48c-.014.156-.033.362-.067.643a28.277,28.277,0,0,1-.5,2.832,29.1,29.1,0,0,1-1.376,4.434,23.38,23.38,0,0,1-3.036,5.413,18.131,18.131,0,0,1-5.7,4.956,19.421,19.421,0,0,1-6.212,2.1l-.15.031c.014-.055.019-.11.031-.172.072-.325.14-.652.186-.967a20.9,20.9,0,0,0,.115-4.528A39.553,39.553,0,0,0,472.815,282v-.028a4.7,4.7,0,0,0,3.24-.342l.072-.038h.014a3.778,3.778,0,0,0,1.415-1.44,4.77,4.77,0,0,0,.528-1.764,9.578,9.578,0,0,0-.268-3.1,27.778,27.778,0,0,0-1.957-5.32c-.79-1.675-1.667-3.29-2.592-4.87q-.689-1.184-1.424-2.345c-.243-.385-.5-.761-.746-1.138.718-.088,1.6-.194,2.648-.344a52.932,52.932,0,0,0,5.526-1.084,31.416,31.416,0,0,0,6.933-2.626,22.872,22.872,0,0,0,6.936-5.574,22.618,22.618,0,0,0,2.69-4.092,25.84,25.84,0,0,0,1.83-4.736,37,37,0,0,0,1.2-10.369,63.7,63.7,0,0,0-1.123-10.571c-.32-1.749-.7-3.467-1.12-5.195-.449-1.739-.982-3.418-1.57-5.071q-.859-2.423-1.88-4.734l-.117-.264c-.039-.087-.082-.172-.12-.259-.636-1.419-1.307-2.807-2.019-4.147a57.868,57.868,0,0,0-5.177-8.12,49.637,49.637,0,0,0-5.141-5.751,50.48,50.48,0,0,1,6.02-5.675,35.021,35.021,0,0,1,14.412-7.037,33.853,33.853,0,0,1,16,.58c.313.091.688.182.951.27l1,.313c.607.224,1.2.437,1.818.71a24.994,24.994,0,0,1,3.484,1.853,25.863,25.863,0,0,1,5.848,5.247,37.786,37.786,0,0,1,6.95,14.1,65.46,65.46,0,0,1,2.158,15.508,104.791,104.791,0,0,1-3.792,29.594Z" fill="#2d0606"/>
        <path id="パス_104" data-name="パス 104" d="M522.693,228.36a5.5,5.5,0,0,0-1.93-1.476,5.6,5.6,0,0,0-1.2-.344c-.2-.029-.411-.065-.614-.084H518l-.119.013h-.053l-.119.018-.483.07a4.791,4.791,0,0,0-.568.124l-.6.161c-.358.136-.724.262-1.071.42a8.8,8.8,0,0,0-1.015.528,16.171,16.171,0,0,0-3.49,2.857,30.878,30.878,0,0,0-5.041,7.5,46.023,46.023,0,0,0-3.233,8.618,45.351,45.351,0,0,0-1.469,9.1,34.963,34.963,0,0,0,.047,4.589l.106,1.078c.052.382.107.764.158,1.144.126.746.269,1.477.454,2.2a18.107,18.107,0,0,0,1.566,4.171,9.871,9.871,0,0,0,2.923,3.483,5.493,5.493,0,0,0,4.625.872,8.106,8.106,0,0,0,3.509-2.128,14.461,14.461,0,0,0,1.214-1.333c.344-.462.7-.9.979-1.363s.581-.9.82-1.34.5-.86.7-1.292a45.547,45.547,0,0,0,1.952-4.442c.461-1.252.795-2.246,1-2.924s.33-1.032.33-1.032a1,1,0,0,0-1.892-.648l-.008.027s-.129.344-.367,1c-.122.323-.259.727-.443,1.191s-.4,1-.637,1.6a42.9,42.9,0,0,1-1.983,4.152c-.2.394-.44.776-.688,1.171s-.5.79-.779,1.187-.59.77-.889,1.171a12.287,12.287,0,0,1-1.032,1.084,5.687,5.687,0,0,1-2.422,1.453,3.4,3.4,0,0,1-.634.1,2.976,2.976,0,0,1-.624-.07,3.133,3.133,0,0,1-1.223-.566,7.258,7.258,0,0,1-2.045-2.594,17.1,17.1,0,0,1-1.285-3.577c-.158-.64-.28-1.3-.39-1.959-.043-.327-.088-.653-.133-.982-.032-.357-.064-.714-.1-1.073a32.462,32.462,0,0,1-.014-4.173,42.739,42.739,0,0,1,1.433-8.516,45.875,45.875,0,0,1,3-8.113,28.18,28.18,0,0,1,4.522-6.859,13.579,13.579,0,0,1,2.865-2.4c.248-.172.516-.277.765-.419a7.013,7.013,0,0,1,.774-.325l.344-.1a2.366,2.366,0,0,1,.387-.1l.482-.079.12-.02h.212l.361-.017.33.041a3.149,3.149,0,0,1,.613.148,2.876,2.876,0,0,1,.988.736,6.459,6.459,0,0,1,1.215,2.621,23.677,23.677,0,0,1,.536,5.767c-.02,1.771-.154,3.329-.292,4.611s-.28,2.282-.387,2.963l-.172,1.032v.04a.99.99,0,0,0,1.945.369l.232-1.082c.141-.7.344-1.731.53-3.054s.385-2.932.471-4.816a23.89,23.89,0,0,0-.437-6.425A8.868,8.868,0,0,0,522.693,228.36Z" fill="#2d0707"/>
        <path id="パス_105" data-name="パス 105" d="M469.583,222.123c-.8-3.319-3.56-5.5-6.179-4.876s-4.1,3.827-3.306,7.148,3.56,5.5,6.181,4.874,4.1-3.825,3.3-7.146" fill="#2d0707"/>
        <path id="パス_106" data-name="パス 106" d="M468.013,220.691c.287.832.089,1.656-.444,1.838s-1.2-.344-1.482-1.176-.09-1.657.443-1.839,1.2.344,1.483,1.177" fill="#fff"/>
        <path id="パス_107" data-name="パス 107" d="M426.34,225.843c-.507,3.376-3.075,5.789-5.739,5.39s-4.413-3.46-3.906-6.834,3.073-5.79,5.739-5.391,4.413,3.463,3.906,6.835" fill="#2d0707"/>
        <path id="パス_108" data-name="パス 108" d="M425.183,222.594c.3.874.094,1.741-.465,1.93s-1.255-.358-1.556-1.231-.093-1.739.466-1.93,1.254.358,1.548,1.231" fill="#fff"/>
      </g>
      <g id="グループ_403" data-name="グループ 403">
        <path id="パス_109" data-name="パス 109" d="M45.519,280.465s1.558,17.3,17.6,18.248S82,261.14,68.787,231.312s-30.8-40.253-49.464-33.984c-22.224,7.464-22.83,44.909-6.384,76.978,7.552,14.726,19.7,16.877,26.89,12.76,6-3.44,7.939-11.436,7.375-17.292" fill="#f5cc56"/>
        <path id="パス_110" data-name="パス 110" d="M63.108,298.976c-14.007-.825-17.144-14.094-17.734-17.629A13.861,13.861,0,0,1,39.96,287.3a15.674,15.674,0,0,1-12.194,1.157C23.532,287.2,17.479,283.74,12.7,274.425,1.288,252.17-1.936,227.591,4.484,211.807a24.425,24.425,0,0,1,14.751-14.736,29.651,29.651,0,0,1,27,3.487c8.647,5.729,16.314,16.038,22.783,30.643,9.867,22.267,11.286,51.051,3.1,62.858a10.063,10.063,0,0,1-8.428,4.931C63.51,298.993,63.309,298.988,63.108,298.976Zm-43.7-101.4c-6.579,2.21-11.434,7.066-14.434,14.432-6.363,15.651-3.147,40.051,8.2,62.174,4.692,9.149,10.606,12.534,14.743,13.759A15.132,15.132,0,0,0,39.7,286.83c5.788-3.31,7.81-11.151,7.243-17.037l.526-.05a22.213,22.213,0,0,1-1.679,10.725c.091.86,2.052,17.074,17.352,17.973a9.458,9.458,0,0,0,8.558-4.686c3.732-5.385,5.6-15.1,5.127-26.645a100.387,100.387,0,0,0-8.278-35.7C62.115,216.9,54.515,206.668,45.952,201a29.278,29.278,0,0,0-16.394-5.16,31.837,31.837,0,0,0-10.152,1.739Z" fill="#f5cc56"/>
        <g id="グループ_402" data-name="グループ 402">
          <g clip-path="url(#clip-path)">
            <g id="グループ_401" data-name="グループ 401">
              <path id="パス_111" data-name="パス 111" d="M42.091,286.142s1.221,13.551,13.79,14.291,14.791-29.426,4.435-52.788S36.2,216.119,21.576,221.029c-17.407,5.848-17.887,35.174-5,60.287,5.915,11.536,15.424,13.218,21.06,10,4.7-2.69,6.217-8.958,5.775-13.541" fill="#f3ae19"/>
            </g>
          </g>
        </g>
        <path id="パス_113" data-name="パス 113" d="M44.449,280.565l.027.254c.019.16.05.392.1.688a26.473,26.473,0,0,0,.568,2.63,27.039,27.039,0,0,0,1.448,4.081,22.068,22.068,0,0,0,3.1,5.033,17.816,17.816,0,0,0,5.768,4.623,19.452,19.452,0,0,0,8.428,1.972,10.355,10.355,0,0,0,2.531-.364A9.671,9.671,0,0,0,68.8,298.46a12.979,12.979,0,0,0,3.829-3.577,28.088,28.088,0,0,0,4.2-9.91,59.924,59.924,0,0,0,1.464-11.4,87.969,87.969,0,0,0-.408-12.211,103.3,103.3,0,0,0-5.974-25.611c-.807-2.14-1.693-4.286-2.671-6.379-.938-2.086-2.006-4.216-3.1-6.286-1.116-2.064-2.274-4.138-3.559-6.149a71.854,71.854,0,0,0-4.108-5.911,55.884,55.884,0,0,0-4.783-5.5,46.068,46.068,0,0,0-5.578-4.815,32.357,32.357,0,0,0-13.634-5.924,31.609,31.609,0,0,0-14.825,1.163c-.3.1-.574.172-.908.289l-.845.308c-.6.241-1.2.49-1.762.768a23.721,23.721,0,0,0-3.268,1.92,24.662,24.662,0,0,0-5.361,5.228,34.84,34.84,0,0,0-5.875,13.269A58.662,58.662,0,0,0,.3,231.689a92.386,92.386,0,0,0,4.461,25.945,111.1,111.1,0,0,0,4.314,11.411c.793,1.8,1.627,3.553,2.485,5.249l.332.654.33.619.329.612.364.626c.487.843.991,1.631,1.526,2.408a28,28,0,0,0,7.624,7.629,19.634,19.634,0,0,0,9.322,3.249,16.237,16.237,0,0,0,4.571-.308,14.859,14.859,0,0,0,4.039-1.455l.479-.261.4-.248c.261-.172.588-.39.849-.585a14.5,14.5,0,0,0,1.479-1.277,15.456,15.456,0,0,0,2.19-2.849,19.537,19.537,0,0,0,2.22-5.5,23.351,23.351,0,0,0,.593-4.3,20.936,20.936,0,0,0-.046-2.686c-.048-.609-.091-.922-.091-.922v-.024a.865.865,0,1,0-1.72.191s.024.287.036.846a24.209,24.209,0,0,1-.084,2.468,21.843,21.843,0,0,1-.714,3.9,17.412,17.412,0,0,1-2.1,4.843,12.133,12.133,0,0,1-4.6,4.3,12.385,12.385,0,0,1-3.41,1.19,13.886,13.886,0,0,1-3.908.224,17.309,17.309,0,0,1-8.154-2.861,25.543,25.543,0,0,1-6.943-6.962c-.495-.713-.977-1.465-1.412-2.22l-.333-.573-.329-.614-.33-.617-.305-.6q-1.261-2.487-2.433-5.134A108.9,108.9,0,0,1,7.11,256.9a89.937,89.937,0,0,1-4.363-25.248,56.035,56.035,0,0,1,1.278-13.376A32.412,32.412,0,0,1,9.46,205.936a22.18,22.18,0,0,1,4.815-4.711,21.115,21.115,0,0,1,2.924-1.72c.516-.256,1.018-.461,1.531-.674l.844-.306c.229-.086.54-.172.809-.257a29.118,29.118,0,0,1,13.69-1.088,29.9,29.9,0,0,1,12.617,5.49,43.443,43.443,0,0,1,5.278,4.566,52.983,52.983,0,0,1,4.589,5.271,69.192,69.192,0,0,1,3.98,5.721c1.248,1.952,2.377,3.969,3.469,5.992,1.071,2.048,2.081,4.053,3.025,6.153.968,2.064,1.821,4.128,2.609,6.223a100.945,100.945,0,0,1,5.848,25,86.439,86.439,0,0,1,.436,11.888,57.43,57.43,0,0,1-1.363,10.951,25.883,25.883,0,0,1-3.784,9.1,10.7,10.7,0,0,1-3.136,2.97,7.3,7.3,0,0,1-1.838.8,8.41,8.41,0,0,1-1.892.289,17.23,17.23,0,0,1-7.471-1.72,15.583,15.583,0,0,1-5.067-4.035,20,20,0,0,1-2.8-4.526,24.835,24.835,0,0,1-1.345-3.748,24.446,24.446,0,0,1-.532-2.408c-.045-.273-.072-.48-.089-.614l-.023-.191v-.039a1.075,1.075,0,0,0-2.136.239" fill="#2d0606"/>
        <path id="パス_114" data-name="パス 114" d="M19.034,258.853s-.063-.306-.184-.879-.273-1.436-.44-2.528-.334-2.423-.418-3.944a20.351,20.351,0,0,1,.249-4.96,5.536,5.536,0,0,1,.943-2.28A2.47,2.47,0,0,1,20,243.6a2.621,2.621,0,0,1,.516-.146l.28-.047h.478c.021,0-.117-.01-.046,0h.051l.1.014.415.05a1.912,1.912,0,0,1,.334.072l.3.072c.222.086.451.155.674.251a4.943,4.943,0,0,1,.669.331,11.7,11.7,0,0,1,2.541,1.946,24.226,24.226,0,0,1,4.127,5.712,39.369,39.369,0,0,1,2.874,6.851,36.532,36.532,0,0,1,1.548,7.245A28.28,28.28,0,0,1,35,269.53c-.016.31-.029.618-.043.925l-.078.845c-.067.571-.147,1.14-.259,1.694a14.722,14.722,0,0,1-.969,3.108A6.231,6.231,0,0,1,32,278.394a2.605,2.605,0,0,1-1.548.607,2.824,2.824,0,0,1-.542-.056,4.855,4.855,0,0,1-2.118-1.149,10.851,10.851,0,0,1-.919-.888c-.272-.333-.561-.629-.8-.971s-.5-.65-.714-.989-.442-.65-.629-.979a36.561,36.561,0,0,1-1.854-3.486c-.456-1.006-.814-1.8-1.032-2.351l-.344-.841-.011-.024a.882.882,0,1,0-1.644.641h0s.112.308.324.882.526,1.416.968,2.477a38.33,38.33,0,0,0,1.837,3.741c.189.358.416.715.648,1.083s.483.743.753,1.122a13.262,13.262,0,0,0,1.983,2.236,7.018,7.018,0,0,0,3.1,1.7,4.734,4.734,0,0,0,3.956-.924A8.5,8.5,0,0,0,35.8,277.12a15.779,15.779,0,0,0,1.191-3.641c.131-.63.226-1.263.307-1.909.031-.329.063-.657.094-.991s.033-.619.048-.929a30.32,30.32,0,0,0-.125-3.941,39.128,39.128,0,0,0-1.6-7.759,39.707,39.707,0,0,0-3.1-7.282,26.619,26.619,0,0,0-4.611-6.26,13.956,13.956,0,0,0-3.106-2.326,8.714,8.714,0,0,0-.893-.416,8.54,8.54,0,0,0-.937-.321l-.528-.117a4.351,4.351,0,0,0-.493-.088l-.417-.041-.1-.012h-.442l-.516.019c-.172.024-.354.062-.53.094a5,5,0,0,0-1.031.344,4.772,4.772,0,0,0-1.61,1.347,7.644,7.644,0,0,0-1.309,3.242,20.558,20.558,0,0,0-.136,5.534c.146,1.608.375,2.986.585,4.113s.421,2,.566,2.6.24.922.24.922a.872.872,0,0,0,1.7-.4Z" fill="#2d0606"/>
        <path id="パス_115" data-name="パス 115" d="M33.3,245.717a49.857,49.857,0,0,0,5.094-9.259c.262-1.625.618-3.329,1.079-5.13,0,0,.877-14.542,17-29.03l-.587-2.781s-4.277-13.272-.9-17.656c2.989-3.879,11.858,9.132,12.245,10.491l1.629,3.225a28.083,28.083,0,0,1,17-1.3c.389-1.355,4.625-16.626,7.994-13.859,6.5,5.332,4.229,18.357,4.229,18.357l.062.541c16.41,10,22.947,36.068,23.612,37.926.172.5.344.994.492,1.48,2.382,4.018,4.482,7.212,3.416,8.211a2.234,2.234,0,0,1-2.2.26c-.367,7.486-5.047,12.3-10.683,15.393.688.622-1.439,2.568-1.565,2.733-.184.237,1.533,5.171-2.265,5.622-5.927.71-7.6,3.956-11.547,6.123l-.4.122c1.756,10.286,1.556,22.152-5.084,23.765-6.88.1-5.532-3.324-5.332-3.639l.115-.688c-3.2,1.247-8.119,2.076-15.465,1.083-.371-.049,2.344,5.322-3.854,4.166-6.192-1.534-5.812-9.538-4.147-16.986l.107-.225a3.732,3.732,0,0,1-3.978.893c-4.644-2.42,4.843-17.2,4.843-17.2l.306-.44c-6.364-.645-22.288-2.924-25.943-18.059-4.3,1.049-7.18-2.184-5.281-4.136" fill="#f6cb57"/>
        <path id="パス_116" data-name="パス 116" d="M67.33,302.127c-5.068-1.256-6.568-6.88-4.461-16.746a3.761,3.761,0,0,1-3.612.4,2.52,2.52,0,0,1-1.28-1.674c-1.2-4.557,5.728-15.436,6.02-15.9l.052-.073c-14.416-1.56-23.047-7.6-25.666-17.965a5.1,5.1,0,0,1-5.612-1.873,2.213,2.213,0,0,1,.334-2.763,46.342,46.342,0,0,0,5.03-9.154c.27-1.666.633-3.386,1.07-5.065a31.506,31.506,0,0,1,2.471-9.167,55.633,55.633,0,0,1,14.5-19.95l-.548-2.6c-.172-.549-4.283-13.455-.86-17.9a2.019,2.019,0,0,1,2.125-.774c3.977.762,10.294,10.319,10.567,11.305l1.523,3.013a27.725,27.725,0,0,1,16.065-1.376l.619.112c1.41-4.95,4.148-13.235,6.864-14.086a1.526,1.526,0,0,1,1.488.322c6.434,5.285,4.485,17.642,4.329,18.574l.041.377c9.843,6.056,17.906,18.864,23.327,37.055.137.464.234.786.287.939.172.5.344.98.487,1.462.239.408.48.805.71,1.192,2.181,3.644,3.756,6.276,2.645,7.318a2.259,2.259,0,0,1-2.136.4c-.421,6.372-3.973,11.47-10.562,15.157a.774.774,0,0,1,.031.2c.023.688-.806,1.623-1.616,2.447l-.1.1a4.091,4.091,0,0,0,.063.439,5.865,5.865,0,0,1-.48,4.25,2.9,2.9,0,0,1-2.063,1.083,14.411,14.411,0,0,0-8.039,3.715A24.622,24.622,0,0,1,97.53,277.3l-.227.074c.9,5.389,2.923,21.843-5.322,23.84h-.057c-3.008.044-4.881-.566-5.567-1.822a2.412,2.412,0,0,1-.014-2.172l.031-.191A32.114,32.114,0,0,1,71.516,298l.036.15a3.7,3.7,0,0,1-.364,3.39,2.979,2.979,0,0,1-2.236.748A9.019,9.019,0,0,1,67.33,302.127Zm3.956-4.687a31.23,31.23,0,0,0,15.334-1.068l.434-.172-.193,1.149-.041.1a1.87,1.87,0,0,0,0,1.678c.4.735,1.615,1.6,5.063,1.548,2.907-.721,4.744-3.548,5.464-8.405a50.4,50.4,0,0,0-.607-15.051l-.039-.23.6-.182a24,24,0,0,0,3.316-2.314,14.847,14.847,0,0,1,8.3-3.826,2.39,2.39,0,0,0,1.709-.878,5.45,5.45,0,0,0,.379-3.847c-.079-.5-.107-.664,0-.8.021-.026.086-.1.172-.191.984-1,1.479-1.7,1.467-2.064a.155.155,0,0,0-.048-.12l-.277-.249.327-.172c6.683-3.664,10.231-8.772,10.544-15.173l.017-.334.322.093a1.961,1.961,0,0,0,1.947-.2c.8-.748-.838-3.488-2.736-6.661q-.357-.6-.728-1.222l-.024-.056c-.15-.483-.31-.971-.488-1.468-.055-.159-.155-.489-.3-.969-6.826-22.9-16.387-32.667-23.2-36.822l-.112-.067-.077-.711v-.038c.022-.129,2.169-12.924-4.138-18.106a1.007,1.007,0,0,0-.994-.226c-1.8.563-4.247,5.738-6.546,13.84l-.1.344-.231-.038c-.249-.039-.536-.093-.86-.153a27.279,27.279,0,0,0-15.995,1.441l-.225.088-1.753-3.483c-.3-1.061-6.514-10.276-10.174-10.978a1.511,1.511,0,0,0-1.608.577c-3.254,4.225.9,17.281.949,17.439l.621,2.924-.115.1c-15.842,14.238-16.9,28.7-16.915,28.894-.444,1.719-.807,3.439-1.074,5.1l-.022.071a45.64,45.64,0,0,1-5.146,9.33h0a1.691,1.691,0,0,0-.254,2.133,4.734,4.734,0,0,0,5.286,1.563l.257-.064.063.258C41.346,260.164,50,266.174,64.551,267.643l.445.045-.555.8c-.071.112-7.109,11.14-5.958,15.479a1.982,1.982,0,0,0,1,1.331,3.439,3.439,0,0,0,3.684-.83l1.133-1.189-.794,1.68c-2.2,9.849-.86,15.448,3.942,16.64,1.666.31,2.8.172,3.367-.428.729-.764.4-2.155.231-2.9-.1-.425-.141-.6-.011-.745l.117-.11Z" fill="#f5cc56"/>
        <path id="パス_117" data-name="パス 117" d="M55.382,202.013c-1.961-5.791-3.925-13.854-2.141-19.354.688-2.141,1.945-2.718,2.872-2.824,3.944-.447,9.688,7.648,13.812,14.522l.047.078a1.235,1.235,0,1,1-2.117,1.274h0l-.048-.079c-5.4-9-9.836-13.52-11.415-13.339-.392.045-.669.726-.8,1.13-1.657,5.113.624,13.348,2.131,17.8a1.236,1.236,0,1,1-2.343.79Zm42.605-1.462a1.235,1.235,0,0,1-1.178-1.289v0c.172-3.636.218-12.565-2.834-16.984-.405-.583-.807-.92-1.055-.884-1.264.191-2.992,3.753-5.134,10.581a12.4,12.4,0,0,1-.89,2.471,1.236,1.236,0,0,1-2.1-1.3c.106-.224.387-1.118.634-1.908,1.865-5.952,3.956-11.8,7.122-12.285a3.533,3.533,0,0,1,3.457,1.923c3.359,4.857,3.49,13.677,3.268,18.5a1.234,1.234,0,0,1-1.233,1.179ZM84.8,193.126l.016-.024Z" fill="#2d0606"/>
        <path id="パス_118" data-name="パス 118" d="M72.887,194.517S84.519,218,88.1,225.775c4.546-22.913-2.991-31.368-2.991-31.368Z" fill="#2d0707"/>
        <path id="パス_119" data-name="パス 119" d="M86.975,226.29c-3.53-7.67-15.075-30.99-15.192-31.224a1.234,1.234,0,0,1,1.1-1.785l12.211-.11h.01a1.241,1.241,0,0,1,.924.412c.325.365,7.89,9.181,3.278,32.429a1.234,1.234,0,0,1-1.067.985,1.16,1.16,0,0,1-.144.009A1.236,1.236,0,0,1,86.975,226.29Zm-12.1-30.555c2.361,4.78,8.943,18.122,12.681,25.97a49.826,49.826,0,0,0-.382-19.675,20.308,20.308,0,0,0-2.673-6.386Z" fill="#2d0707"/>
        <path id="パス_120" data-name="パス 120" d="M88.406,240.842a8.406,8.406,0,0,1,0,4.484" fill="#2d0606"/>
        <path id="パス_121" data-name="パス 121" d="M88.4,246.15a.827.827,0,0,0,.781-.557,9.216,9.216,0,0,0,.008-4.988.824.824,0,0,0-1.579.47,7.63,7.63,0,0,1,.011,3.985.822.822,0,0,0,.511,1.044h.005A.84.84,0,0,0,88.4,246.15Z" fill="#2d0606"/>
        <path id="パス_122" data-name="パス 122" d="M70.35,284.882c0,6.915,4.988,12.519,11.145,12.519s11.145-5.6,11.145-12.519S87.652,272.364,81.5,272.364s-11.145,5.6-11.145,12.518" fill="#fff"/>
        <path id="パス_123" data-name="パス 123" d="M63.177,267.69c-.441.7-.843,1.386-1.247,2.088s-.79,1.406-1.166,2.119c-.754,1.425-1.466,2.88-2.1,4.387a24.343,24.343,0,0,0-1.522,4.757,8.4,8.4,0,0,0-.117,2.752,4.177,4.177,0,0,0,.532,1.532,3.292,3.292,0,0,0,1.3,1.215h.014l.063.029a4.439,4.439,0,0,0,2.02.344,4.726,4.726,0,0,0,1.907-.573,5.5,5.5,0,0,0,.8-.528,4.591,4.591,0,0,0,.373-.325l.3-.3,1.077-1.133c.712-.765,1.412-1.538,2.1-2.339q.516-.6,1.011-1.232a15.944,15.944,0,0,0,.965-1.357,1.019,1.019,0,0,0-1.72-1.092h0l-.017.026c-.243.375-.535.766-.843,1.151s-.633.77-.967,1.147c-.667.76-1.36,1.507-2.064,2.236L62.8,283.685l-.249.249a2.171,2.171,0,0,1-.211.172,3.373,3.373,0,0,1-.5.311,2.264,2.264,0,0,1-2.038.1l.076.036a1.075,1.075,0,0,1-.411-.395,1.994,1.994,0,0,1-.218-.706,6.3,6.3,0,0,1,.132-1.988,22.159,22.159,0,0,1,1.438-4.267c.612-1.412,1.314-2.8,2.064-4.167Q63.449,272,64.042,271c.395-.667.806-1.343,1.216-1.981h0a1.235,1.235,0,0,0-2.076-1.34h0l-.009.016" fill="#2d0606"/>
        <path id="パス_124" data-name="パス 124" d="M83.476,277.581l3.769,6.073-3.762-2.026-3.768,2.034Z" fill="#f39d30"/>
        <path id="パス_125" data-name="パス 125" d="M79.493,283.879a.306.306,0,0,1-.038-.37l3.762-6.081a.3.3,0,0,1,.258-.143h0a.306.306,0,0,1,.259.143L87.5,283.5a.306.306,0,0,1-.4.432l-3.612-1.949-3.622,1.955a.3.3,0,0,1-.145.038A.3.3,0,0,1,79.493,283.879Zm4.128-2.511,2.752,1.484-2.905-4.685-2.9,4.692,2.763-1.491a.313.313,0,0,1,.144-.036.3.3,0,0,1,.155.036Z" fill="#f39d30"/>
        <path id="パス_126" data-name="パス 126" d="M87.013,239.757l1.394,1.085,1.4-1.085Z" fill="#2d0606"/>
        <path id="パス_127" data-name="パス 127" d="M88.406,242a1.148,1.148,0,0,0,.71-.242l1.395-1.085a1.154,1.154,0,0,0-.707-2.064H87.011a1.154,1.154,0,0,0-.707,2.064l1.395,1.085A1.152,1.152,0,0,0,88.406,242Z" fill="#2d0606"/>
        <path id="パス_128" data-name="パス 128" d="M91.312,292.243l-.017.024-.033.046c-.039.054-.11.143-.206.26a8.392,8.392,0,0,1-1,.96,13.764,13.764,0,0,1-4.592,2.351,26.5,26.5,0,0,1-7.473,1.051,39.931,39.931,0,0,1-4.333-.193c-.737-.062-1.48-.172-2.227-.258h-.361c.144-.069-.745.172-.86.516a1.338,1.338,0,0,0-.194.42,1.42,1.42,0,0,0-.043.325v.156a2.463,2.463,0,0,0,.043.284l.068.32.111.516a3.959,3.959,0,0,1,.085.875,1.154,1.154,0,0,1-.118.533.543.543,0,0,1-.286.231,3.517,3.517,0,0,1-1.64.1,4.881,4.881,0,0,1-3.131-1.562,7.054,7.054,0,0,1-1.472-3.185,16.249,16.249,0,0,1-.309-3.465,36.819,36.819,0,0,1,.516-5.394c.216-1.307.368-2.053.368-2.053a.991.991,0,0,0-1.934-.434l-.134.549c-.087.358-.213.884-.344,1.56a34.936,34.936,0,0,0-.736,5.727,18.416,18.416,0,0,0,.272,3.985,9.017,9.017,0,0,0,1.973,4.319,7.339,7.339,0,0,0,4.654,2.382,8.132,8.132,0,0,0,1.351.053,4.548,4.548,0,0,0,1.536-.329,3.027,3.027,0,0,0,1.443-1.243,3.567,3.567,0,0,0,.463-1.687,6.4,6.4,0,0,0-.122-1.429c-.04-.217-.09-.425-.134-.614l-.057-.246h0v.084a1.266,1.266,0,0,1-.21.641c-.1.344-.985.565-.829.5h-.289c.784.09,1.56.19,2.339.248a42.151,42.151,0,0,0,4.592.158,29.588,29.588,0,0,0,4.316-.39,23.913,23.913,0,0,0,3.811-.949,16.261,16.261,0,0,0,3.063-1.393,13.449,13.449,0,0,0,2.139-1.548,9.274,9.274,0,0,0,1.192-1.282c.126-.172.219-.3.282-.4l.1-.172a.943.943,0,0,0-1.595-1.006h0Z" fill="#2d0606"/>
        <path id="パス_129" data-name="パス 129" d="M103.857,241.962a6.415,6.415,0,1,0,6.415-6.415,6.415,6.415,0,0,0-6.415,6.415h0" fill="#f39d2f"/>
        <path id="パス_130" data-name="パス 130" d="M100.7,238.631c.566,2.915,2.888,4.915,5.187,4.471s3.7-3.173,3.137-6.086a6.17,6.17,0,0,0-1.855-3.416,3.874,3.874,0,0,0-3.334-1.051c-2.3.447-3.7,3.172-3.137,6.085" fill="#2d0606"/>
        <path id="パス_131" data-name="パス 131" d="M101.589,236.45c-.231.77-.018,1.513.474,1.66s1.077-.362,1.307-1.13.016-1.514-.48-1.658-1.074.357-1.3,1.128" fill="#fff"/>
        <path id="パス_132" data-name="パス 132" d="M107.526,235.2a4.588,4.588,0,0,0,3.362-1.39.864.864,0,0,0-1.233-1.212,2.888,2.888,0,0,1-1.945.869,4.723,4.723,0,0,0,.6-2.236.86.86,0,0,0-.83-.889h-.035a.859.859,0,0,0-.86.837,2.385,2.385,0,0,1-.994,2.117.86.86,0,0,0-.4,1.15l0,.006a.787.787,0,0,0,.113.172.851.851,0,0,0,.344.248A5.487,5.487,0,0,0,107.526,235.2Z" fill="#2d0606"/>
        <path id="パス_133" data-name="パス 133" d="M56.615,241.425a6.416,6.416,0,1,0,6.414-6.416h0a6.411,6.411,0,0,0-6.412,6.411v.005" fill="#f39d2f"/>
        <path id="パス_134" data-name="パス 134" d="M71.976,234.673a4.582,4.582,0,0,0,3.362-1.389.862.862,0,1,0-1.233-1.2,2.893,2.893,0,0,1-1.945.86,4.744,4.744,0,0,0,.593-2.236.86.86,0,0,0-.83-.889h-.008a.881.881,0,0,0-.891.839,2.367,2.367,0,0,1-.99,2.115.861.861,0,0,0-.4,1.15l0,.008a.787.787,0,0,0,.113.172.869.869,0,0,0,.344.249A5.543,5.543,0,0,0,71.976,234.673Z" fill="#2d0606"/>
        <path id="パス_135" data-name="パス 135" d="M72.93,238.087c-.561,2.884-2.86,4.869-5.137,4.427s-3.67-3.14-3.11-6.019,2.86-4.869,5.139-4.427,3.667,3.142,3.108,6.019" fill="#2d0606"/>
        <path id="パス_136" data-name="パス 136" d="M66.161,235.92c-.231.771-.018,1.515.478,1.663s1.076-.361,1.3-1.131.018-1.512-.474-1.658-1.079.357-1.306,1.128" fill="#fff"/>
        <path id="パス_137" data-name="パス 137" d="M95.337,268.557l2.308-.516c.767-.16,1.548-.38,2.322-.573s1.548-.406,2.313-.633,1.534-.442,2.293-.7,1.522-.49,2.271-.779,1.507-.552,2.247-.86c.369-.157.744-.3,1.112-.464l1.1-.508c.738-.323,1.443-.727,2.164-1.094.356-.192.7-.409,1.054-.61s.7-.411,1.032-.642.688-.442,1.02-.688l.993-.729a24.235,24.235,0,0,0,1.876-1.62,17.952,17.952,0,0,0,1.692-1.849c.274-.32.5-.688.752-1.02a9.1,9.1,0,0,0,.664-1.092,13.137,13.137,0,0,0,1.014-2.373,10.946,10.946,0,0,0,.467-2.58,9.623,9.623,0,0,0-.021-1.337c-.019-.225-.05-.448-.088-.677a5.493,5.493,0,0,0-.172-.741l-1.2,1.432a12.122,12.122,0,0,0,2.441.226,3.844,3.844,0,0,0,1.518-.344,2.382,2.382,0,0,0,.811-.635,2.283,2.283,0,0,0,.455-.967,2.765,2.765,0,0,0,.04-.9v-.068l-.023-.123-.055-.256c-.041-.127-.077-.261-.125-.375a7.017,7.017,0,0,0-.621-1.171c-.433-.688-.86-1.273-1.273-1.88a28.378,28.378,0,0,1-2.16-3.716,26.334,26.334,0,0,1-1.522-4c-.2-.688-.375-1.386-.531-2.088l-.53-2.2c-.157-.719-.411-1.469-.612-2.2-.11-.368-.21-.741-.329-1.1l-.371-1.078c-.241-.721-.489-1.44-.79-2.141s-.554-1.419-.886-2.105c-.619-1.392-1.308-2.752-2.046-4.085s-1.548-2.625-2.408-3.882-1.78-2.477-2.752-3.643c-.487-.584-.978-1.167-1.5-1.72l-.793-.832-.805-.812c-1.071-1.083-2.21-2.1-3.373-3.078a44.954,44.954,0,0,0-3.642-2.752c-1.257-.86-2.54-1.675-3.872-2.417s-2.688-1.432-4.083-2.05c-.688-.311-1.4-.6-2.12-.872-.361-.136-.721-.264-1.089-.388s-.717-.238-1.164-.344l.129.039c-.527-.186-.981-.313-1.473-.445s-.966-.236-1.453-.334q-1.455-.3-2.932-.449a30.793,30.793,0,0,0-5.918-.024,28.948,28.948,0,0,0-5.81,1.135l-.353.11-.172.055-.087.028-.045.014-.1.038-.674.278-1.333.576c-.446.2-.888.4-1.333.623-.224.11-.446.225-.676.352a4.517,4.517,0,0,0-.764.506.892.892,0,0,0,1.108,1.4h0l.079-.062a3.815,3.815,0,0,1,.442-.267c.189-.1.394-.2.6-.3.415-.2.843-.385,1.275-.571l1.307-.538.655-.258.609-.172a27,27,0,0,1,5.436-1,29.164,29.164,0,0,1,5.535.11,27.307,27.307,0,0,1,2.733.433c.449.095.9.2,1.34.318s.9.255,1.269.389a.969.969,0,0,0,.119.038h.01c.275.069.643.189.972.3s.676.239,1.014.368c.673.261,1.345.536,2.006.837,1.324.6,2.623,1.261,3.89,1.98s2.494,1.51,3.694,2.336,2.348,1.719,3.469,2.653a43.456,43.456,0,0,1,3.21,2.96l.763.779.737.809c.5.531.961,1.09,1.425,1.651.929,1.119,1.794,2.292,2.616,3.491s1.574,2.446,2.281,3.719,1.35,2.579,1.933,3.911c.316.657.561,1.343.836,2.017s.516,1.362.757,2.05l.362,1.032c.117.344.21.688.317,1.032.194.7.433,1.362.6,2.1l.529,2.145c.172.751.362,1.5.583,2.236a28.585,28.585,0,0,0,1.676,4.332,30.131,30.131,0,0,0,2.346,3.992c.426.628.873,1.238,1.243,1.814a5.267,5.267,0,0,1,.435.793c.026.057.033.1.053.153v.031l.009.071a.605.605,0,0,1,0,.208c-.031.076.033,0-.074.082a1.754,1.754,0,0,1-.648.126,10.342,10.342,0,0,1-2-.189,1.089,1.089,0,0,0-1.2,1.415v.018a4.171,4.171,0,0,1,.093.411c.026.148.051.326.065.5a7.406,7.406,0,0,1,.021,1.032,8.77,8.77,0,0,1-.363,2.064,10.991,10.991,0,0,1-.833,1.972c-.172.319-.366.625-.56.933a8,8,0,0,1-.647.887,16.131,16.131,0,0,1-1.491,1.644,22.332,22.332,0,0,1-1.7,1.481l-.909.678c-.307.223-.632.423-.946.636s-.642.415-.972.605-.654.4-.991.58c-.688.353-1.346.738-2.05,1.054l-1.042.5-1.065.462c-.7.317-1.429.6-2.155.872s-1.456.538-2.191.79-1.477.492-2.224.717-1.489.457-2.235.652-1.488.421-2.262.6l-2.3.556a.9.9,0,1,0,.411,1.759" fill="#2d0606"/>
        <path id="パス_138" data-name="パス 138" d="M59.985,198.626c-.553.327-1.154.688-1.71,1.061s-1.116.757-1.663,1.153q-1.628,1.191-3.132,2.542a44.227,44.227,0,0,0-5.473,5.906c-.827,1.061-1.589,2.165-2.322,3.29s-1.4,2.289-2.041,3.464-1.226,2.383-1.765,3.611c-.278.608-.516,1.232-.786,1.848s-.492,1.245-.715,1.874c-.451,1.258-.881,2.525-1.249,3.806s-.712,2.58-1.013,3.874-.59,2.478-.992,3.692a35.874,35.874,0,0,1-1.355,3.55c-.516,1.159-1.091,2.294-1.712,3.419s-1.291,2.214-1.931,3.5a7.25,7.25,0,0,0-.44,1.118,3.583,3.583,0,0,0-.136.762,2.627,2.627,0,0,0,.015.416,2.955,2.955,0,0,0,.045.3l.067.236a2.922,2.922,0,0,0,1.015,1.386,4.9,4.9,0,0,0,1.169.65,9.21,9.21,0,0,0,2.224.542c.366.045.733.074,1.106.086a7.243,7.243,0,0,0,1.214-.06l-1.475-1.032h0a19.469,19.469,0,0,0,.658,2.272q.383,1.088.86,2.133a27.049,27.049,0,0,0,2.227,4A23.477,23.477,0,0,0,55.5,268.054a32.211,32.211,0,0,0,8.983.589.949.949,0,0,0-.1-1.892h0a30.358,30.358,0,0,1-8.414-.714A21.238,21.238,0,0,1,42.7,256.693a24.434,24.434,0,0,1-1.95-3.676c-.272-.638-.516-1.288-.735-1.945a17.525,17.525,0,0,1-.528-1.936l-.013-.055a1.3,1.3,0,0,0-1.462-.982,4.552,4.552,0,0,1-.747.032,7.209,7.209,0,0,1-.86-.062,6.7,6.7,0,0,1-1.592-.368,2.392,2.392,0,0,1-.549-.292c-.131-.1-.157-.16-.153-.157h0a.133.133,0,0,1,.009.055c-.009.121,0-.208-.009-.075a1,1,0,0,1,.041-.2,4.679,4.679,0,0,1,.279-.707c.516-1.065,1.221-2.224,1.847-3.393s1.238-2.384,1.78-3.624a38.175,38.175,0,0,0,1.424-3.8c.415-1.278.738-2.64,1.018-3.9s.588-2.508.948-3.743.743-2.461,1.166-3.672c.21-.609.449-1.2.671-1.806.249-.593.478-1.191.739-1.778.508-1.178,1.07-2.33,1.658-3.467s1.23-2.248,1.923-3.325,1.407-2.136,2.183-3.152a42.016,42.016,0,0,1,5.154-5.667q1.416-1.29,2.948-2.436c.516-.378,1.032-.749,1.562-1.1s1.049-.677,1.622-1.032a1.05,1.05,0,0,0-1.077-1.8Z" fill="#2d0606"/>
        <path id="パス_139" data-name="パス 139" d="M78.824,200.771c-3.956,5.83-12.082,9.894-15.532,6.587s-.631-7.568-.631-7.568-4.945-4.442-1.46-9.166c4.275-5.793,14.347-1.2,17.216,4.684Z" fill="#ea647d"/>
        <path id="パス_140" data-name="パス 140" d="M63.108,207.54a6.233,6.233,0,0,1-.784-7.713,10.05,10.05,0,0,1-1.942-2.752,6.163,6.163,0,0,1,.6-6.622,7.031,7.031,0,0,1,6.661-2.736,14.83,14.83,0,0,1,11.007,7.459l.44,5.653-.051.076c-2.8,4.128-7.7,7.428-11.647,7.844a7.262,7.262,0,0,1-.807.045A4.869,4.869,0,0,1,63.108,207.54Zm15.049-12.17A14.263,14.263,0,0,0,67.6,188.25a6.585,6.585,0,0,0-6.191,2.523,5.593,5.593,0,0,0-.557,6.068,9.619,9.619,0,0,0,1.979,2.752l.172.153-.125.189c-.11.172-2.654,4.117.595,7.232a4.7,4.7,0,0,0,3.864,1.072c3.784-.4,8.483-3.562,11.212-7.54Z" fill="#ea647d"/>
        <path id="パス_141" data-name="パス 141" d="M67.426,209.056c4.027-.424,9.014-3.784,11.868-7.976a.564.564,0,0,0-.934-.632c-2.675,3.947-7.322,7.094-11.047,7.484a4.345,4.345,0,0,1-3.627-.99,4.735,4.735,0,0,1-1.454-4.472,7.238,7.238,0,0,1,.9-2.37l.268-.408-.358-.323a9.262,9.262,0,0,1-1.919-2.664,5.313,5.313,0,0,1,.535-5.749,6.308,6.308,0,0,1,5.918-2.408,13.927,13.927,0,0,1,10.338,7,.564.564,0,1,0,1.013-.494h0a13.779,13.779,0,0,0-4.659-5.125,14.4,14.4,0,0,0-6.592-2.5,8.462,8.462,0,0,0-3.808.464,6.885,6.885,0,0,0-3.118,2.393,6.456,6.456,0,0,0-.635,6.929,10.459,10.459,0,0,0,1.84,2.666,8.416,8.416,0,0,0-.827,2.344,5.87,5.87,0,0,0,1.775,5.536,5.4,5.4,0,0,0,4.341,1.316,1.461,1.461,0,0,0,.186-.017" fill="#2d0606"/>
        <path id="パス_142" data-name="パス 142" d="M62.6,208.072a6.292,6.292,0,0,1-1.891-5.927,8.756,8.756,0,0,1,.727-2.2,10.777,10.777,0,0,1-1.709-2.553,6.862,6.862,0,0,1,.677-7.369,7.3,7.3,0,0,1,3.313-2.539,8.862,8.862,0,0,1,4-.492,14.833,14.833,0,0,1,6.8,2.58,14.167,14.167,0,0,1,4.8,5.29,1,1,0,0,1-1.217,1.382h0a.988.988,0,0,1-.571-.505,13.448,13.448,0,0,0-9.989-6.758,5.9,5.9,0,0,0-5.531,2.228,4.911,4.911,0,0,0-.49,5.311,8.814,8.814,0,0,0,1.814,2.524l.635.571-.468.718a6.693,6.693,0,0,0-.838,2.21,4.32,4.32,0,0,0,1.326,4.091,3.923,3.923,0,0,0,3.28.872c3.612-.378,8.125-3.439,10.736-7.3a.992.992,0,0,1,1.641,1.115c-2.912,4.3-8.031,7.724-12.17,8.16-.071.009-.141.016-.2.019-.235.019-.468.03-.688.03A5.6,5.6,0,0,1,62.6,208.072Zm16.114-7.382c-2.741,4.044-7.519,7.27-11.36,7.672a4.744,4.744,0,0,1-3.969-1.107,5.142,5.142,0,0,1-1.581-4.869,7.649,7.649,0,0,1,.967-2.53l.063-.1-.092-.085a9.782,9.782,0,0,1-2.013-2.8,5.725,5.725,0,0,1,.58-6.191,6.708,6.708,0,0,1,6.3-2.58A14.391,14.391,0,0,1,78.3,195.365a.128.128,0,0,0,.172.062h0a.139.139,0,0,0,.067-.174,13.311,13.311,0,0,0-4.513-4.955,13.928,13.928,0,0,0-6.387-2.433,8.026,8.026,0,0,0-3.612.44,6.459,6.459,0,0,0-2.924,2.236,6.051,6.051,0,0,0-.59,6.489,9.988,9.988,0,0,0,1.763,2.551l.215.225-.146.277a7.9,7.9,0,0,0-.784,2.222,5.457,5.457,0,0,0,1.649,5.146,5.007,5.007,0,0,0,4.019,1.194.571.571,0,0,0,.153-.014h.011c3.907-.411,8.771-3.686,11.549-7.786a.131.131,0,0,0,.02-.1.119.119,0,0,0-.055-.084.144.144,0,0,0-.075-.023.138.138,0,0,0-.114.059Z" fill="#2d0606"/>
        <path id="パス_143" data-name="パス 143" d="M64.768,201.366a.568.568,0,0,0-.172-.781,8.663,8.663,0,0,1-2.554-2.329.517.517,0,0,0-.67-.289l-.032.014a.564.564,0,0,0-.23.764v0a9.93,9.93,0,0,0,2.871,2.784.554.554,0,0,0,.352.089.567.567,0,0,0,.428-.254" fill="#2d0606"/>
        <path id="パス_144" data-name="パス 144" d="M63.751,201.9a10.373,10.373,0,0,1-3.017-2.944,1,1,0,0,1,.4-1.348l.005,0a.867.867,0,0,1,.676-.072,1.039,1.039,0,0,1,.61.516,7.692,7.692,0,0,0,2.408,2.172,1,1,0,0,1,.3,1.376h0a1.007,1.007,0,0,1-.757.449h-.083A.994.994,0,0,1,63.751,201.9Zm.612-.947a8.75,8.75,0,0,1-2.7-2.487c-.041-.076-.09-.1-.117-.1a.129.129,0,0,0-.052.172,9.655,9.655,0,0,0,2.723,2.628.125.125,0,0,0,.082.02.138.138,0,0,0,.1-.06A.134.134,0,0,0,64.363,200.95Z" fill="#2d0606"/>
        <path id="パス_145" data-name="パス 145" d="M82.381,195.119c1.653-5.926,10.187-11.893,15.125-7.261,4.026,3.784.209,8.725.209,8.725s3.33,3.459.7,7.107-10.835,1.271-15.479-3.451Z" fill="#ea647d"/>
        <path id="パス_146" data-name="パス 146" d="M82.745,200.425l-.065-.065-.567-5.265.013-.05a13.966,13.966,0,0,1,8.925-8.783,6.627,6.627,0,0,1,6.639,1.4c3.716,3.484,1,7.958.364,8.9a5.875,5.875,0,0,1,.581,7.277,4.9,4.9,0,0,1-3.768,1.861c-.215.017-.438.026-.664.026A17.754,17.754,0,0,1,82.745,200.425Zm8.449-13.652a13.392,13.392,0,0,0-8.545,8.367l.538,4.988a16.614,16.614,0,0,0,11.639,5.056,4.39,4.39,0,0,0,3.379-1.642,5.379,5.379,0,0,0-.687-6.768l-.159-.172.14-.172a8.979,8.979,0,0,0,1.363-2.869,5.242,5.242,0,0,0-1.547-5.5,5.714,5.714,0,0,0-4.025-1.583,7.85,7.85,0,0,0-2.1.3Z" fill="#ea647d"/>
        <path id="パス_147" data-name="パス 147" d="M95.058,205.958A5.1,5.1,0,0,0,98.85,204a5.534,5.534,0,0,0,.7-5.422,7.778,7.778,0,0,0-1.166-2.029,9.761,9.761,0,0,0,1.251-2.779,6.076,6.076,0,0,0-1.765-6.3,6.457,6.457,0,0,0-3.292-1.679,7.935,7.935,0,0,0-3.611.213,13.563,13.563,0,0,0-5.676,3.44,12.93,12.93,0,0,0-3.44,5.531.531.531,0,0,0,1.022.286,13.091,13.091,0,0,1,8.372-8.23,5.93,5.93,0,0,1,5.88,1.214,5,5,0,0,1,1.476,5.227,8.782,8.782,0,0,1-1.321,2.788l-.28.361.318.33a6.647,6.647,0,0,1,1.235,2.038,4.454,4.454,0,0,1-.58,4.393,4.082,4.082,0,0,1-3.187,1.531,16.387,16.387,0,0,1-11.49-5.043.532.532,0,0,0-.757.745c3.347,3.4,8.531,5.648,12.328,5.359l.172-.016" fill="#2d0606"/>
        <path id="パス_148" data-name="パス 148" d="M82.248,200.914a.953.953,0,0,1-.276-.688.938.938,0,0,1,.285-.673,1.014,1.014,0,0,1,.688-.278.942.942,0,0,1,.674.287,15.922,15.922,0,0,0,11.15,4.915,3.683,3.683,0,0,0,2.871-1.352,4.044,4.044,0,0,0,.526-3.988,6.268,6.268,0,0,0-1.14-1.892l-.578-.6.507-.655a8.242,8.242,0,0,0,1.247-2.634,4.593,4.593,0,0,0-1.352-4.8,5.516,5.516,0,0,0-5.467-1.115,12.609,12.609,0,0,0-8.072,7.929.963.963,0,1,1-1.861-.5l.006-.021a13.374,13.374,0,0,1,3.551-5.722,14.031,14.031,0,0,1,5.856-3.547,8.363,8.363,0,0,1,3.8-.223,6.908,6.908,0,0,1,3.509,1.788,6.487,6.487,0,0,1,1.892,6.727,10.255,10.255,0,0,1-1.141,2.647,8.267,8.267,0,0,1,1.042,1.892,5.941,5.941,0,0,1-.753,5.828,5.5,5.5,0,0,1-4.1,2.133l-.186.017c-.229.017-.461.026-.7.026A18.51,18.51,0,0,1,82.248,200.914ZM98.5,203.746a5.118,5.118,0,0,0,.647-5.015,7.39,7.39,0,0,0-1.1-1.912l-.2-.246.172-.264a9.346,9.346,0,0,0,1.192-2.65,5.661,5.661,0,0,0-1.645-5.875,6.05,6.05,0,0,0-3.073-1.572,7.509,7.509,0,0,0-3.407.208,13.107,13.107,0,0,0-5.481,3.328,12.5,12.5,0,0,0-3.327,5.332.1.1,0,0,0,.064.122.1.1,0,0,0,.125-.071,13.562,13.562,0,0,1,8.672-8.528,6.339,6.339,0,0,1,6.293,1.315,5.41,5.41,0,0,1,1.6,5.65,9.192,9.192,0,0,1-1.4,2.945l-.052.067.069.07a7.1,7.1,0,0,1,1.319,2.176,4.863,4.863,0,0,1-.635,4.8,4.488,4.488,0,0,1-3.5,1.71c-3.629.278-8.6-1.892-11.835-5.174a.1.1,0,0,0-.067-.027.089.089,0,0,0-.072.033.08.08,0,0,0-.027.063.1.1,0,0,0,.027.072c3.268,3.313,8.3,5.5,11.988,5.231l.172-.016a4.685,4.685,0,0,0,3.477-1.768Z" fill="#2d0606"/>
        <path id="パス_149" data-name="パス 149" d="M79.084,200.064a2.11,2.11,0,0,0,4.2-.37l0-.044-.416-4.2a2.111,2.111,0,0,0-4.2.393l0,.023Z" fill="#ea647d"/>
        <path id="パス_150" data-name="パス 150" d="M80.874,194.036a1.61,1.61,0,0,0-1.42,1.779c0,.031.008.062.013.092l.389,3.909a1.589,1.589,0,1,0,3.151-.311L82.62,195.6a1.61,1.61,0,0,0-1.653-1.565q-.046,0-.093.006m.568,8.427a2.891,2.891,0,0,1-3.161-2.487l-.389-3.909a2.9,2.9,0,0,1,5.777-.573l.387,3.908a2.891,2.891,0,0,1-2.614,3.061" fill="#2d0606"/>
        <path id="パス_151" data-name="パス 151" d="M85.327,195.823c-1.18.516-2.222,1.082-2.265,1.1a.531.531,0,1,0,.5.934c.01,0,1.032-.552,2.157-1.051,2.113-.936,2.579-.8,2.593-.8l.047.021a3.5,3.5,0,0,1-1.464.781.531.531,0,0,0,.273,1.027.58.58,0,0,0,.059-.019c.664-.217,2.213-.831,2.246-1.811a1.033,1.033,0,0,0-.767-.984,1.432,1.432,0,0,0-.674-.076,9.234,9.234,0,0,0-2.709.872" fill="#2d0606"/>
        <path id="パス_152" data-name="パス 152" d="M72.837,196.182a1.5,1.5,0,0,0-.688.21,1.094,1.094,0,0,0-.612,1.178c.224,1.018,1.959,1.362,2.7,1.462a.564.564,0,0,0,.153-1.118h0a3.76,3.76,0,0,1-1.68-.536.269.269,0,0,1,.046-.028c.015-.009.473-.239,2.864.33,1.277.305,2.445.688,2.456.688a.564.564,0,1,0,.421-1.046.432.432,0,0,0-.077-.025c-.049-.017-1.246-.4-2.58-.719a9.776,9.776,0,0,0-3-.391" fill="#2d0606"/>
        <path id="パス_153" data-name="パス 153" d="M96.475,198.568a.522.522,0,0,0,.312-.141,9.382,9.382,0,0,0,2.18-3.065.532.532,0,0,0-.344-.671c-.278-.091-.5.093-.586.372a8.128,8.128,0,0,1-1.98,2.593.53.53,0,0,0,.417.912" fill="#2d0606"/>
        <path id="パス_154" data-name="パス 154" d="M95.722,198.7a.965.965,0,0,1,.041-1.36,7.16,7.16,0,0,0,1.866-2.408,1.012,1.012,0,0,1,.484-.6.83.83,0,0,1,.648-.045.964.964,0,0,1,.619,1.214,9.727,9.727,0,0,1-2.294,3.247.956.956,0,0,1-.566.256h0a.769.769,0,0,1-.1,0A.961.961,0,0,1,95.722,198.7Zm.712-.561a.1.1,0,0,0,.062-.027,9.124,9.124,0,0,0,2.064-2.883.123.123,0,0,0-.048-.134.22.22,0,0,0-.055.1,8.076,8.076,0,0,1-2.1,2.774.1.1,0,0,0,0,.136v0a.1.1,0,0,0,.083.031Z" fill="#2d0606"/>
        <path id="パス_155" data-name="パス 155" d="M95.13,267.679c4.838-2.137,16.384-5.675,17.765-5.331,1.827.466,1.892,3.044-1.032,4.012,0,0,1.433,6.484-5.694,4.943a26.684,26.684,0,0,1-8.8,6.88" fill="#f6cb57"/>
        <path id="パス_156" data-name="パス 156" d="M97.364,279.476a1.286,1.286,0,0,0,.467-.088,26.434,26.434,0,0,0,8.823-6.674,5.775,5.775,0,0,0,5.225-1.235,5.614,5.614,0,0,0,1.375-4.312,3.784,3.784,0,0,0,2.214-3.352,2.9,2.9,0,0,0-2.26-2.723c-2.076-.529-14.643,3.648-18.607,5.4a1.3,1.3,0,0,0,1.049,2.372,90.635,90.635,0,0,1,16.929-5.245h.039c.253.082.256.23.258.282.009.258-.279.846-1.433,1.228a1.3,1.3,0,0,0-.86,1.511,3.735,3.735,0,0,1-.553,3.014,4.216,4.216,0,0,1-3.6.38,1.3,1.3,0,0,0-1.272.44,25.519,25.519,0,0,1-8.266,6.5,1.3,1.3,0,0,0,.468,2.506Z" fill="#2d0606"/>
        <path id="パス_157" data-name="パス 157" d="M95.227,273.14c.134.626.252,1.228.369,1.851l.327,1.854q.3,1.858.516,3.728a56.594,56.594,0,0,1,.37,7.465,24.867,24.867,0,0,1-1.075,7.173,9.049,9.049,0,0,1-1.562,2.959,4.718,4.718,0,0,1-2.535,1.6l.265-.032c-.306-.009-.614-.016-.913-.038s-.6-.024-.891-.057a6.247,6.247,0,0,1-1.6-.344,2.489,2.489,0,0,1-.593-.278,1.1,1.1,0,0,1-.344-.327.915.915,0,0,1-.145-.413,1.219,1.219,0,0,1,0-.27l.019-.132v-.052c0-.01,0-.021-.031.029a.991.991,0,0,0-1.647-1.1,2.3,2.3,0,0,0-.146.248c-.031.062-.061.121-.085.172a3.209,3.209,0,0,0-.125.344,3.352,3.352,0,0,0-.129.7,2.936,2.936,0,0,0,.263,1.489,3.308,3.308,0,0,0,.925,1.161,4.624,4.624,0,0,0,1.12.669,8.593,8.593,0,0,0,2.222.54c.363.045.717.074,1.07.088s.7,0,1.049-.014h.024a1.094,1.094,0,0,0,.242-.033,6.99,6.99,0,0,0,2.111-.908,7.463,7.463,0,0,0,1.69-1.506,11.361,11.361,0,0,0,1.978-3.751,21.119,21.119,0,0,0,.836-3.947,34.753,34.753,0,0,0,.241-3.936,54.031,54.031,0,0,0-.533-7.761c-.172-1.28-.387-2.553-.626-3.819-.123-.631-.252-1.264-.391-1.891s-.289-1.268-.442-1.88h0a.944.944,0,0,0-1.838.425" fill="#2d0606"/>
      </g>
    </g>
  </g>
</svg>
